<svg width="32" height="32" viewBox="0 0 32 32" fill="none" xmlns="http://www.w3.org/2000/svg">
<path d="M29.3334 6.22757V22.3209C29.3334 23.6009 28.2934 24.8009 27.0134 24.9609L26.5734 25.0143C23.6667 25.4009 19.1867 26.8809 16.6267 28.2942C16.28 28.4942 15.7068 28.4942 15.3468 28.2942L15.2934 28.2676C12.7334 26.8676 8.26679 25.4009 5.37345 25.0143L4.98673 24.9609C3.70673 24.8009 2.66675 23.6009 2.66675 22.3209V6.21422C2.66675 4.62756 3.96005 3.42757 5.54671 3.5609C8.34671 3.78757 12.5867 5.20094 14.96 6.68094L15.2934 6.88089C15.68 7.12089 16.3201 7.12089 16.7068 6.88089L16.9334 6.73424C17.7734 6.21424 18.8401 5.69424 20.0001 5.22757V10.6676L22.6667 8.89424L25.3334 10.6676V3.70763C25.6934 3.64096 26.0401 3.60092 26.3601 3.57425H26.4401C28.0268 3.44092 29.3334 4.62757 29.3334 6.22757Z" stroke="#2D2D2D" stroke-width="1.5" stroke-linecap="round" stroke-linejoin="round"/>
<path d="M16 7.32031V27.3203" stroke="#2D2D2D" stroke-width="1.5" stroke-linecap="round" stroke-linejoin="round"/>
<path d="M25.3333 3.70703V10.667L22.6667 8.89364L20 10.667V5.22697C21.7467 4.53364 23.6933 3.9737 25.3333 3.70703Z" stroke="#2D2D2D" stroke-width="1.5" stroke-linecap="round" stroke-linejoin="round"/>
</svg>
