<svg width="48" height="48" viewBox="0 0 48 48" fill="none" xmlns="http://www.w3.org/2000/svg">
<path d="M25.84 4.51969L38.86 11.5397C40.38 12.3597 40.38 14.6997 38.86 15.5197L25.84 22.5397C24.68 23.1597 23.32 23.1597 22.16 22.5397L9.14 15.5197C7.62 14.6997 7.62 12.3597 9.14 11.5397L22.16 4.51969C23.32 3.89969 24.68 3.89969 25.84 4.51969Z" stroke="white" stroke-width="3" stroke-linecap="round" stroke-linejoin="round"/>
<path d="M7.22 20.2594L19.32 26.3194C20.82 27.0794 21.78 28.6194 21.78 30.2994V41.7394C21.78 43.3994 20.04 44.4594 18.56 43.7194L6.46 37.6594C4.96 36.8994 4 35.3594 4 33.6794V22.2394C4 20.5794 5.74 19.5194 7.22 20.2594Z" stroke="white" stroke-width="3" stroke-linecap="round" stroke-linejoin="round"/>
<path d="M40.78 20.2594L28.68 26.3194C27.18 27.0794 26.22 28.6194 26.22 30.2994V41.7394C26.22 43.3994 27.96 44.4594 29.44 43.7194L41.54 37.6594C43.04 36.8994 44 35.3594 44 33.6794V22.2394C44 20.5794 42.26 19.5194 40.78 20.2594Z" stroke="white" stroke-width="3" stroke-linecap="round" stroke-linejoin="round"/>
</svg>
