<svg width="48" height="48" viewBox="0 0 48 48" fill="none" xmlns="http://www.w3.org/2000/svg">
<path d="M17.3438 28.6597C17.3438 31.2397 19.3238 33.3197 21.7838 33.3197H26.8037C28.9437 33.3197 30.6838 31.4997 30.6838 29.2597C30.6838 26.8197 29.6238 25.9597 28.0438 25.3997L19.9837 22.5997C18.4037 22.0397 17.3438 21.1797 17.3438 18.7397C17.3438 16.4997 19.0837 14.6797 21.2237 14.6797H26.2437C28.7037 14.6797 30.6838 16.7597 30.6838 19.3397" stroke="url(#paint0_linear_212_1174)" stroke-width="3" stroke-linecap="round" stroke-linejoin="round"/>
<path d="M24 12V36" stroke="url(#paint1_linear_212_1174)" stroke-width="3" stroke-linecap="round" stroke-linejoin="round"/>
<path d="M30 44H18C8 44 4 40 4 30V18C4 8 8 4 18 4H30C40 4 44 8 44 18V30C44 40 40 44 30 44Z" stroke="url(#paint2_linear_212_1174)" stroke-width="3" stroke-linecap="round" stroke-linejoin="round"/>
<defs>
<linearGradient id="paint0_linear_212_1174" x1="30.6837" y1="14.6797" x2="18.803" y2="15.0486" gradientUnits="userSpaceOnUse">
<stop stop-color="#4FA0CA"/>
<stop offset="1" stop-color="#285A80"/>
</linearGradient>
<linearGradient id="paint1_linear_212_1174" x1="25" y1="12" x2="24.1085" y2="12.0016" gradientUnits="userSpaceOnUse">
<stop stop-color="#4FA0CA"/>
<stop offset="1" stop-color="#285A80"/>
</linearGradient>
<linearGradient id="paint2_linear_212_1174" x1="44" y1="3.99996" x2="8.40833" y2="5.5444" gradientUnits="userSpaceOnUse">
<stop stop-color="#4FA0CA"/>
<stop offset="1" stop-color="#285A80"/>
</linearGradient>
</defs>
</svg>
